<?xml version="1.0" encoding="utf-8"?>
<!-- Generator: Adobe Illustrator 16.0.0, SVG Export Plug-In . SVG Version: 6.00 Build 0)  -->
<!DOCTYPE svg PUBLIC "-//W3C//DTD SVG 1.1//EN" "http://www.w3.org/Graphics/SVG/1.1/DTD/svg11.dtd">
<svg version="1.1" id="Capa_1" xmlns="http://www.w3.org/2000/svg" xmlns:xlink="http://www.w3.org/1999/xlink" x="0px" y="0px"
	 width="146.442px" height="150px" viewBox="426.779 0 146.442 150" enable-background="new 426.779 0 146.442 150"
	 xml:space="preserve">
<rect x="426.779" fill="#F0F8FF" width="146.442" height="150"/>
<g>
	<path fill="#87CEEB" d="M539.219,108.323c5.51,8.675,8.105,13.28,8.105,18.084c0,9.487-7.046,14.088-16.538,14.088
		c-4.185,0-6.886-0.005-13.712-3.557c0,0-4.423-4.048-14.774-3.633c-10.447-0.413-14.873,3.683-14.873,3.683
		c-6.827,3.549-9.431,3.512-13.61,3.512c-9.492,0-16.544-4.596-16.544-14.088c0-4.803,2.604-9.403,8.111-18.084
		c0,0,10.41-17.286,19.43-25.42c6.519-5.868,16.022-5.847,16.022-5.847h2.932v-0.003c0,0,9.919-0.023,16.029,5.85
		C528.539,91.337,539.219,108.326,539.219,108.323z M479.109,65.501c9.924,0,17.969-12.537,17.969-28s-8.044-28-17.969-28
		c-9.925,0-17.969,12.537-17.969,28S469.185,65.501,479.109,65.501z M461.889,92.618c7.314-3.377,8.983-15.351,3.723-26.745
		c-5.26-11.395-15.452-17.896-22.767-14.522c-7.314,3.375-8.98,15.351-3.723,26.745C444.381,89.491,454.574,95.99,461.889,92.618z
		 M520.886,65.501c9.924,0,17.971-12.537,17.971-28s-8.047-28-17.971-28c-9.925,0-17.969,12.537-17.969,28
		S510.961,65.501,520.886,65.501z M557.153,51.349c-7.317-3.377-17.508,3.125-22.768,14.522c-5.261,11.396-3.592,23.37,3.726,26.747
		c7.317,3.374,17.508-3.127,22.768-14.521C566.138,66.703,564.47,54.726,557.153,51.349z"/>
</g>
</svg>
